<svg width="23" height="23" viewBox="0 0 23 23" fill="none" xmlns="http://www.w3.org/2000/svg">
<path fill-rule="evenodd" clip-rule="evenodd" d="M6.72549 9.47185C6.72549 9.09848 7.02816 8.79581 7.40152 8.79581H16.1899C16.5633 8.79581 16.866 9.09848 16.866 9.47185C16.866 9.84521 16.5633 10.1479 16.1899 10.1479H7.40152C7.02816 10.1479 6.72549 9.84521 6.72549 9.47185Z" fill="white"/>
<path fill-rule="evenodd" clip-rule="evenodd" d="M6.72549 12.176C6.72549 11.8026 7.02816 11.4999 7.40152 11.4999H16.1899C16.5633 11.4999 16.866 11.8026 16.866 12.176C16.866 12.5493 16.5633 12.852 16.1899 12.852H7.40152C7.02816 12.852 6.72549 12.5493 6.72549 12.176Z" fill="white"/>
<path fill-rule="evenodd" clip-rule="evenodd" d="M3.40333 4.45961C3.65689 4.20605 4.0008 4.0636 4.35939 4.0636H19.2321C19.5907 4.0636 19.9346 4.20605 20.1881 4.45961C20.4417 4.71317 20.5841 5.05707 20.5841 5.41566V18.2602C20.5841 18.4945 20.4628 18.7121 20.2635 18.8353C20.0642 18.9585 19.8153 18.9697 19.6058 18.8649L17.204 17.664L14.8022 18.8649C14.6119 18.9601 14.3878 18.9601 14.1975 18.8649L11.7957 17.664L9.39393 18.8649C9.20361 18.9601 8.97959 18.9601 8.78927 18.8649L6.38748 17.664L3.98569 18.8649C3.77612 18.9697 3.52725 18.9585 3.32794 18.8353C3.12864 18.7121 3.00732 18.4945 3.00732 18.2602V5.41566C3.00732 5.05707 3.14977 4.71317 3.40333 4.45961ZM19.2321 5.41566L4.35939 5.41566L4.35939 17.1664L6.08515 16.3035C6.27547 16.2084 6.49949 16.2084 6.68981 16.3035L9.0916 17.5044L11.4934 16.3035C11.6837 16.2084 11.9077 16.2084 12.0981 16.3035L14.4998 17.5044L16.9016 16.3035C17.092 16.2084 17.316 16.2084 17.5063 16.3035L19.2321 17.1664V5.41566Z" fill="white"/>
</svg>
